<?xml version="1.0" encoding="UTF-8"?>
<svg width="32" height="32" viewBox="0 0 32 32" xmlns="http://www.w3.org/2000/svg">
  <defs>
    <linearGradient id="logoGradient" x1="0%" y1="0%" x2="100%" y2="100%">
      <stop offset="0%" style="stop-color:#6b3dff"/>
      <stop offset="100%" style="stop-color:#a347ff"/>
    </linearGradient>
  </defs>
  
  <!-- Heart Icon -->
  <path d="M16 28c-1 0-2-.4-2.8-1.2L4 17.6C1.4 15 0 11.6 0 8c0-3.6 2.4-6 6-6 2.4 0 4.8 1.2 6 3 1.2-1.8 3.6-3 6-3 3.6 0 6 2.4 6 6 0 3.6-1.4 7-4 9.6l-9.2 9.2c-.8.8-1.8 1.2-2.8 1.2z" 
        fill="url(#logoGradient)" stroke="#8b3dff" stroke-width="1"/>
</svg> 